<?xml version="1.0" standalone="no"?><!DOCTYPE svg PUBLIC "-//W3C//DTD SVG 1.1//EN" "http://www.w3.org/Graphics/SVG/1.1/DTD/svg11.dtd"><svg t="1580978910905" class="icon" viewBox="0 0 1024 1024" version="1.1" xmlns="http://www.w3.org/2000/svg" p-id="2264" xmlns:xlink="http://www.w3.org/1999/xlink" width="200" height="200"><defs><style type="text/css"></style></defs><path d="M512 362.666667a149.333333 149.333333 0 1 0 149.333333 149.333333 149.504 149.504 0 0 0-149.333333-149.333333z m0 256a106.666667 106.666667 0 1 1 106.666667-106.666667 106.709333 106.709333 0 0 1-106.666667 106.666667z" fill="#1976D2" p-id="2265"></path><path d="M858.026667 554.666667a53.973333 53.973333 0 0 1 0-85.333334 96.362667 96.362667 0 0 0-71.253334-171.946666 53.866667 53.866667 0 0 1-60.16-60.16A96.362667 96.362667 0 0 0 554.666667 165.973333a55.786667 55.786667 0 0 1-85.333334 0 96.362667 96.362667 0 0 0-171.946666 71.253334 53.866667 53.866667 0 0 1-60.16 60.16A96.362667 96.362667 0 0 0 165.973333 469.333333a53.973333 53.973333 0 0 1 0 85.333334 96.362667 96.362667 0 0 0 71.253334 171.946666 53.866667 53.866667 0 0 1 60.16 60.16 94.357333 94.357333 0 0 0 58.666666 101.546667 102.485333 102.485333 0 0 0 38.186667 7.68A93.952 93.952 0 0 0 469.333333 858.026667a55.786667 55.786667 0 0 1 85.333334 0 96.362667 96.362667 0 0 0 171.946666-71.253334 53.866667 53.866667 0 0 1 60.16-60.16 95.274667 95.274667 0 0 0 101.546667-58.666666A94.186667 94.186667 0 0 0 858.026667 554.666667z m-9.173334 96.853333a52.608 52.608 0 0 1-56.533333 32.853333 96.341333 96.341333 0 0 0-107.946667 107.946667 53.824 53.824 0 0 1-96 39.68 99.584 99.584 0 0 0-152.746666 0 53.824 53.824 0 0 1-96-39.68 96.426667 96.426667 0 0 0-95.36-108.8 83.2 83.2 0 0 0-12.586667 0.853333 52.437333 52.437333 0 0 1-56.533333-32.853333A51.84 51.84 0 0 1 192 588.373333a96.448 96.448 0 0 0 0-152.746666 53.824 53.824 0 0 1 39.68-96 96.576 96.576 0 0 0 107.946667-107.946667A53.824 53.824 0 0 1 435.626667 192a99.584 99.584 0 0 0 152.746666 0 53.824 53.824 0 0 1 96 39.68 96.576 96.576 0 0 0 107.946667 107.946667 53.824 53.824 0 0 1 39.68 96 96.448 96.448 0 0 0 0 152.746666 51.84 51.84 0 0 1 16.853333 63.146667z" fill="#1976D2" p-id="2266"></path><path d="M832 588.373333a96.448 96.448 0 0 1 0-152.746666 53.824 53.824 0 0 0-39.68-96 96.576 96.576 0 0 1-107.946667-107.946667A53.824 53.824 0 0 0 588.373333 192a99.584 99.584 0 0 1-152.746666 0 53.824 53.824 0 0 0-96 39.68 96.576 96.576 0 0 1-107.946667 107.946667A53.824 53.824 0 0 0 192 435.626667a96.448 96.448 0 0 1 0 152.746666 51.84 51.84 0 0 0-16.853333 63.146667 52.437333 52.437333 0 0 0 56.533333 32.853333 83.2 83.2 0 0 1 12.586667-0.853333 96.426667 96.426667 0 0 1 95.36 108.8 53.824 53.824 0 0 0 96 39.68 99.584 99.584 0 0 1 152.746666 0 53.824 53.824 0 0 0 96-39.68 96.341333 96.341333 0 0 1 107.946667-107.946667 52.608 52.608 0 0 0 56.533333-32.853333 51.84 51.84 0 0 0-16.853333-63.146667zM512 661.333333a149.333333 149.333333 0 1 1 149.333333-149.333333 149.504 149.504 0 0 1-149.333333 149.333333z" fill="#42A5F5" p-id="2267"></path><path d="M512 512m-106.666667 0a106.666667 106.666667 0 1 0 213.333334 0 106.666667 106.666667 0 1 0-213.333334 0Z" fill="#90CAF9" p-id="2268"></path></svg>